<svg width="542" height="453" viewBox="0 0 542 453" fill="none" xmlns="http://www.w3.org/2000/svg">
<path d="M223.329 106.534H220.868V39.0552C220.868 33.9264 219.859 28.8478 217.898 24.1094C215.937 19.371 213.063 15.0656 209.439 11.439C205.816 7.81235 201.515 4.93557 196.781 2.97287C192.047 1.01017 186.973 -1.60456e-05 181.849 1.91157e-10H39.0188C33.8948 -1.60456e-05 28.8209 1.01017 24.0869 2.97287C19.353 4.93557 15.0516 7.81235 11.4283 11.439C7.80509 15.0656 4.93098 19.371 2.97011 24.1094C1.00923 28.8478 -8.01538e-06 33.9264 0 39.0552V409.251C-4.80921e-06 414.38 1.00924 419.459 2.97012 424.197C4.93099 428.936 7.8051 433.241 11.4283 436.868C15.0516 440.494 19.353 443.371 24.0869 445.334C28.8209 447.296 33.8948 448.307 39.0188 448.307H181.849C186.973 448.307 192.047 447.296 196.781 445.334C201.515 443.371 205.816 440.494 209.439 436.868C213.063 433.241 215.937 428.936 217.898 424.197C219.859 419.459 220.868 414.38 220.868 409.251V154.567H223.329V106.534Z" fill="#FFC310"/>
<path d="M183.423 10.1608H164.779C165.637 12.2648 165.964 14.5476 165.732 16.808C165.501 19.0685 164.717 21.2372 163.451 23.1232C162.185 25.0091 160.475 26.5545 158.471 27.623C156.468 28.6916 154.232 29.2506 151.962 29.2507H70.1364C67.8662 29.2506 65.6309 28.6916 63.6274 27.623C61.6238 26.5545 59.9136 25.0091 58.6473 23.1232C57.381 21.2372 56.5976 19.0685 56.3659 16.808C56.1343 14.5476 56.4616 12.2648 57.3189 10.1608H39.9053C36.0788 10.1608 32.2897 10.9152 28.7544 12.3809C25.2192 13.8466 22.0069 15.9949 19.3012 18.7032C16.5954 21.4116 14.449 24.6268 12.9847 28.1653C11.5203 31.7039 10.7666 35.4965 10.7666 39.3267V408.98C10.7666 412.81 11.5203 416.603 12.9847 420.141C14.449 423.68 16.5954 426.895 19.3011 429.603C22.0069 432.312 25.2192 434.46 28.7544 435.926C32.2897 437.391 36.0788 438.146 39.9053 438.146H183.423C187.25 438.146 191.039 437.391 194.574 435.926C198.11 434.46 201.322 432.312 204.028 429.603C206.733 426.895 208.88 423.68 210.344 420.141C211.809 416.603 212.562 412.81 212.562 408.98V39.3267C212.562 35.4965 211.809 31.7039 210.344 28.1653C208.88 24.6268 206.733 21.4116 204.028 18.7032C201.322 15.9949 198.11 13.8466 194.574 12.3809C191.039 10.9152 187.25 10.1608 183.423 10.1608Z" fill="white"/>
<path d="M69.3811 85.3073H60.8121C60.5108 85.3073 60.2218 85.4271 60.0088 85.6403C59.7957 85.8536 59.676 86.1428 59.676 86.4444V90.2091C59.676 90.5107 59.7957 90.7999 60.0088 91.0132C60.2218 91.2264 60.5108 91.3463 60.8121 91.3463H62.2321V96.9871H67.9611V91.3463H69.3811C69.6824 91.3463 69.9714 91.2264 70.1845 91.0132C70.3975 90.7999 70.5172 90.5107 70.5172 90.2091V86.4444C70.5172 86.1428 70.3975 85.8536 70.1845 85.6403C69.9714 85.4271 69.6824 85.3073 69.3811 85.3073Z" fill="#E6E6E6"/>
<path d="M77.9642 119.762C72.7162 112.076 70.0334 102.924 70.3 93.618C70.3048 93.4033 70.2351 93.1935 70.1029 93.0244C69.9707 92.8552 69.7841 92.737 69.5747 92.69V91.0632H60.5247V92.6673H60.4C60.1537 92.6677 59.9177 92.7659 59.7437 92.9404C59.5698 93.115 59.4723 93.3515 59.4726 93.598C59.4726 93.6206 59.4735 93.6432 59.4752 93.6657C60.1881 103.614 57.7806 112.535 52.2525 120.429C51.9344 120.883 51.7719 121.428 51.7894 121.982L52.7789 152.621C52.8027 153.304 53.0893 153.952 53.5788 154.429C54.0683 154.906 54.723 155.175 55.4061 155.18H75.8759C76.5669 155.175 77.2283 154.899 77.7194 154.413C78.2104 153.926 78.4922 153.267 78.5047 152.575L78.8861 122.827C78.8974 121.736 78.5758 120.666 77.9642 119.762Z" fill="#E6E6E6"/>
<path d="M74.7236 129.939H56.9062C56.6424 129.939 56.3818 129.996 56.1422 130.107C55.9025 130.217 55.6895 130.378 55.5178 130.578C55.3461 130.778 55.2197 131.014 55.1472 131.267C55.0748 131.521 55.0581 131.788 55.0982 132.049L57.7906 149.566H73.2511L76.5215 132.108C76.571 131.843 76.5617 131.571 76.4943 131.311C76.4268 131.05 76.3029 130.808 76.1312 130.601C75.9596 130.394 75.7444 130.227 75.5011 130.113C75.2578 129.999 74.9923 129.939 74.7236 129.939Z" fill="white"/>
<path d="M164.771 177.09H156.202C155.901 177.09 155.612 177.21 155.399 177.423C155.186 177.637 155.066 177.926 155.066 178.227V181.992C155.066 182.294 155.186 182.583 155.399 182.796C155.612 183.01 155.901 183.129 156.202 183.129H157.622V188.77H163.351V183.129H164.771C165.072 183.129 165.361 183.01 165.574 182.796C165.787 182.583 165.907 182.294 165.907 181.992V178.227C165.907 177.926 165.787 177.637 165.574 177.423C165.361 177.21 165.072 177.09 164.771 177.09Z" fill="#E6E6E6"/>
<path d="M173.354 211.545C168.106 203.859 165.423 194.707 165.69 185.401C165.694 185.186 165.625 184.977 165.493 184.807C165.36 184.638 165.174 184.52 164.964 184.473V182.846H155.914V184.45H155.79C155.668 184.45 155.547 184.475 155.434 184.522C155.322 184.568 155.22 184.637 155.133 184.723C155.047 184.81 154.979 184.912 154.932 185.025C154.886 185.138 154.862 185.259 154.862 185.381C154.862 185.404 154.863 185.426 154.865 185.449C155.578 195.397 153.17 204.318 147.642 212.212C147.324 212.666 147.162 213.21 147.179 213.764L148.169 244.403C148.192 245.087 148.479 245.735 148.968 246.212C149.458 246.689 150.113 246.958 150.796 246.963H171.266C171.957 246.958 172.618 246.682 173.109 246.196C173.6 245.709 173.882 245.05 173.894 244.358L174.276 214.61C174.287 213.518 173.965 212.449 173.354 211.545Z" fill="#E6E6E6"/>
<path d="M170.113 221.722H152.296C152.032 221.722 151.772 221.779 151.532 221.89C151.292 222 151.079 222.161 150.908 222.361C150.736 222.561 150.61 222.797 150.537 223.05C150.465 223.304 150.448 223.571 150.488 223.832L153.181 241.349H168.641L171.911 223.891C171.961 223.626 171.952 223.354 171.884 223.094C171.817 222.833 171.693 222.591 171.521 222.384C171.349 222.177 171.134 222.01 170.891 221.896C170.648 221.782 170.382 221.722 170.113 221.722Z" fill="white"/>
<path d="M57.3343 306.845H53.2696C53.1267 306.845 52.9896 306.901 52.8886 307.003C52.7875 307.104 52.7307 307.241 52.7307 307.384V309.17C52.7307 309.313 52.7875 309.45 52.8886 309.551C52.9896 309.652 53.1267 309.709 53.2696 309.709H53.9432V312.385H56.6607V309.709H57.3343C57.4772 309.709 57.6143 309.652 57.7153 309.551C57.8164 309.45 57.8732 309.313 57.8732 309.17V307.384C57.8732 307.241 57.8164 307.104 57.7153 307.003C57.6143 306.901 57.4772 306.845 57.3343 306.845Z" fill="#E6E6E6"/>
<path d="M61.4055 323.188C58.9162 319.542 57.6436 315.201 57.77 310.787C57.7723 310.685 57.7393 310.585 57.6766 310.505C57.6139 310.425 57.5253 310.369 57.426 310.347V309.575H53.1332V310.336H53.074C53.0162 310.336 52.9589 310.347 52.9055 310.37C52.8521 310.392 52.8036 310.424 52.7627 310.465C52.7219 310.506 52.6895 310.555 52.6674 310.609C52.6454 310.662 52.634 310.719 52.6341 310.777C52.6341 310.788 52.6345 310.799 52.6353 310.809C53.0316 315.314 51.8175 319.813 49.2093 323.505C49.0584 323.72 48.9813 323.978 48.9896 324.241L49.459 338.774C49.4703 339.099 49.6062 339.406 49.8384 339.632C50.0706 339.858 50.3811 339.986 50.7052 339.989H60.415C60.7427 339.986 61.0565 339.855 61.2894 339.625C61.5223 339.394 61.656 339.081 61.6619 338.753L61.8428 324.642C61.8482 324.124 61.6956 323.617 61.4055 323.188Z" fill="#E6E6E6"/>
<path d="M60.0081 328.53H50.7434V333.167H60.0081V328.53Z" fill="white"/>
<path d="M76.2554 306.845H72.1908C72.0478 306.845 71.9108 306.901 71.8097 307.003C71.7086 307.104 71.6519 307.241 71.6519 307.384V309.17C71.6519 309.313 71.7086 309.45 71.8097 309.551C71.9108 309.652 72.0478 309.709 72.1908 309.709H72.8643V312.385H75.5819V309.709H76.2554C76.3984 309.709 76.5354 309.652 76.6365 309.551C76.7376 309.45 76.7943 309.313 76.7943 309.17V307.384C76.7943 307.241 76.7376 307.104 76.6365 307.003C76.5354 306.901 76.3984 306.845 76.2554 306.845Z" fill="#E6E6E6"/>
<path d="M80.3267 323.188C77.8373 319.542 76.5647 315.201 76.6912 310.787C76.6935 310.685 76.6604 310.585 76.5977 310.505C76.535 310.425 76.4465 310.369 76.3472 310.347V309.575H72.0543V310.336H71.9952C71.9373 310.336 71.8801 310.347 71.8267 310.37C71.7732 310.392 71.7247 310.424 71.6839 310.465C71.643 310.506 71.6106 310.555 71.5886 310.609C71.5665 310.662 71.5552 310.719 71.5553 310.777C71.5553 310.788 71.5557 310.799 71.5565 310.809C71.9527 315.314 70.7386 319.813 68.1305 323.505C67.9796 323.72 67.9025 323.978 67.9108 324.241L68.3801 338.774C68.3914 339.099 68.5273 339.406 68.7595 339.632C68.9917 339.858 69.3023 339.986 69.6263 339.989H79.3361C79.6639 339.986 79.9776 339.855 80.2105 339.625C80.4435 339.394 80.5771 339.081 80.5831 338.753L80.764 324.642C80.7693 324.124 80.6168 323.617 80.3267 323.188Z" fill="#E6E6E6"/>
<path d="M78.9293 328.53H69.6646V333.167H78.9293V328.53Z" fill="white"/>
<path d="M95.1766 306.845H91.1119C90.969 306.845 90.8319 306.901 90.7308 307.003C90.6298 307.104 90.573 307.241 90.573 307.384V309.17C90.573 309.313 90.6298 309.45 90.7308 309.551C90.8319 309.652 90.969 309.709 91.1119 309.709H91.7855V312.385H94.503V309.709H95.1766C95.3195 309.709 95.4566 309.652 95.5576 309.551C95.6587 309.45 95.7155 309.313 95.7155 309.17V307.384C95.7155 307.241 95.6587 307.104 95.5576 307.003C95.4566 306.901 95.3195 306.845 95.1766 306.845Z" fill="#E6E6E6"/>
<path d="M99.2481 323.188C96.7587 319.542 95.4861 315.201 95.6126 310.787C95.6148 310.685 95.5818 310.585 95.5191 310.505C95.4564 310.425 95.3679 310.369 95.2686 310.347V309.575H90.9757V310.336H90.9166C90.8587 310.336 90.8015 310.347 90.748 310.37C90.6946 310.392 90.6461 310.424 90.6053 310.465C90.5644 310.506 90.532 310.555 90.51 310.609C90.4879 310.662 90.4766 310.719 90.4767 310.777C90.4767 310.788 90.4771 310.799 90.4779 310.809C90.8741 315.314 89.66 319.813 87.0518 323.505C86.901 323.72 86.8239 323.978 86.8321 324.241L87.3015 338.774C87.3128 339.099 87.4487 339.406 87.6809 339.632C87.9131 339.858 88.2237 339.986 88.5477 339.989H98.2575C98.5852 339.986 98.899 339.855 99.1319 339.625C99.3648 339.394 99.4985 339.081 99.5045 338.753L99.6853 324.642C99.6907 324.124 99.5382 323.617 99.2481 323.188Z" fill="#E6E6E6"/>
<path d="M97.8504 328.53H88.5857V333.167H97.8504V328.53Z" fill="white"/>
<path d="M149.885 271.337H141.316C141.166 271.337 141.019 271.367 140.881 271.424C140.743 271.481 140.618 271.565 140.512 271.67C140.407 271.776 140.323 271.901 140.266 272.039C140.209 272.177 140.179 272.325 140.179 272.474V276.239C140.179 276.541 140.299 276.83 140.512 277.043C140.725 277.257 141.014 277.376 141.316 277.376H142.736V283.017H148.465V277.376H149.885C150.186 277.376 150.475 277.257 150.688 277.043C150.901 276.83 151.021 276.541 151.021 276.239V272.474C151.021 272.325 150.991 272.177 150.934 272.039C150.877 271.901 150.793 271.776 150.688 271.67C150.582 271.565 150.457 271.481 150.319 271.424C150.181 271.367 150.034 271.337 149.885 271.337Z" fill="#E6E6E6"/>
<path d="M158.468 305.792C153.22 298.106 150.537 288.954 150.803 279.648C150.808 279.433 150.739 279.224 150.606 279.054C150.474 278.885 150.288 278.767 150.078 278.72V277.093H141.028V278.697H140.903C140.781 278.698 140.661 278.722 140.548 278.769C140.436 278.815 140.333 278.884 140.247 278.97C140.161 279.057 140.093 279.159 140.046 279.272C140 279.385 139.976 279.506 139.976 279.628C139.976 279.651 139.977 279.673 139.979 279.696C140.692 289.644 138.284 298.565 132.756 306.459C132.438 306.913 132.275 307.458 132.293 308.012L133.282 338.651C133.306 339.334 133.593 339.982 134.082 340.459C134.572 340.936 135.226 341.205 135.91 341.21H156.379C157.07 341.205 157.732 340.929 158.223 340.443C158.714 339.956 158.996 339.297 159.008 338.605L159.389 308.857C159.401 307.766 159.079 306.696 158.468 305.792Z" fill="#E6E6E6"/>
<path d="M155.227 315.969H137.41C137.146 315.969 136.885 316.026 136.646 316.137C136.406 316.247 136.193 316.408 136.021 316.608C135.85 316.808 135.723 317.044 135.651 317.297C135.578 317.551 135.561 317.818 135.602 318.079L138.294 335.596H153.755L157.025 318.138C157.074 317.873 157.065 317.601 156.998 317.341C156.93 317.08 156.806 316.838 156.635 316.631C156.463 316.424 156.248 316.257 156.005 316.143C155.761 316.029 155.496 315.969 155.227 315.969Z" fill="white"/>
<path d="M154.563 159.125H103.483C107.054 139.799 106.232 116.462 103.483 91.3655H154.563C151.886 116.462 151.086 139.799 154.563 159.125Z" fill="#E6E6E6"/>
<path d="M129.331 135.717C136.128 135.717 141.639 130.201 141.639 123.397C141.639 116.593 136.128 111.077 129.331 111.077C122.533 111.077 117.022 116.593 117.022 123.397C117.022 130.201 122.533 135.717 129.331 135.717Z" fill="white"/>
<path d="M107.791 249.06H56.7114C60.2826 229.734 59.461 206.397 56.7114 181.301H107.791C105.115 206.398 104.315 229.734 107.791 249.06Z" fill="#E6E6E6"/>
<path d="M82.5588 225.652C89.3566 225.652 94.8672 220.136 94.8672 213.332C94.8672 206.528 89.3566 201.012 82.5588 201.012C75.7611 201.012 70.2505 206.528 70.2505 213.332C70.2505 220.136 75.7611 225.652 82.5588 225.652Z" fill="white"/>
<path d="M183.487 163.437H132.408C135.979 144.111 135.157 120.774 132.408 95.6774H183.487C180.811 120.774 180.011 144.111 183.487 163.437Z" fill="#E6E6E6"/>
<path d="M158.255 140.029C165.053 140.029 170.564 134.513 170.564 127.709C170.564 120.905 165.053 115.389 158.255 115.389C151.457 115.389 145.947 120.905 145.947 127.709C145.947 134.513 151.457 140.029 158.255 140.029Z" fill="white"/>
<path d="M183.487 160.357H132.408C135.979 141.031 135.157 117.694 132.408 92.5975H183.487C180.811 117.694 180.011 141.031 183.487 160.357Z" fill="#E6E6E6"/>
<path d="M158.255 136.949C165.053 136.949 170.564 131.433 170.564 124.629C170.564 117.825 165.053 112.309 158.255 112.309C151.457 112.309 145.947 117.825 145.947 124.629C145.947 131.433 151.457 136.949 158.255 136.949Z" fill="white"/>
<path d="M183.487 163.437H132.408C135.979 144.111 135.157 120.774 132.408 95.6774H183.487C180.811 120.774 180.011 144.111 183.487 163.437Z" fill="#E6E6E6"/>
<path d="M158.255 140.029C165.053 140.029 170.564 134.513 170.564 127.709C170.564 120.905 165.053 115.389 158.255 115.389C151.457 115.389 145.947 120.905 145.947 127.709C145.947 134.513 151.457 140.029 158.255 140.029Z" fill="white"/>
<path d="M195.18 155.429H27.7866V173.909H195.18V155.429Z" fill="#E6E6E6"/>
<path d="M195.18 247.212H27.7866V265.692H195.18V247.212Z" fill="#E6E6E6"/>
<path d="M195.18 338.995H27.7866V357.475H195.18V338.995Z" fill="#E6E6E6"/>
<path d="M486.369 413.967L444.666 384.443C458.731 370.729 471.523 351.202 483.757 329.123L525.46 358.646C508.796 377.589 494.68 396.179 486.369 413.967Z" fill="#FFC310"/>
<path d="M486.38 382.534C493.178 382.534 498.689 377.018 498.689 370.214C498.689 363.41 493.178 357.894 486.38 357.894C479.583 357.894 474.072 363.41 474.072 370.214C474.072 377.018 479.583 382.534 486.38 382.534Z" fill="white"/>
<path d="M285.199 279.244H280.621C280.46 279.244 280.306 279.308 280.192 279.421C280.078 279.535 280.014 279.69 280.014 279.851V281.862C280.014 281.942 280.03 282.021 280.06 282.095C280.091 282.168 280.136 282.235 280.192 282.292C280.248 282.348 280.315 282.393 280.389 282.423C280.462 282.454 280.541 282.47 280.621 282.47H281.38V285.483H284.44V282.47H285.199C285.36 282.47 285.514 282.406 285.628 282.292C285.742 282.178 285.806 282.023 285.806 281.862V279.851C285.806 279.69 285.742 279.535 285.628 279.421C285.514 279.308 285.36 279.244 285.199 279.244Z" fill="#E6E6E6"/>
<path d="M289.784 297.65C286.98 293.543 285.547 288.655 285.69 283.683C285.692 283.568 285.655 283.456 285.584 283.366C285.514 283.276 285.414 283.213 285.302 283.187V282.318H280.468V283.175H280.401C280.336 283.175 280.271 283.188 280.211 283.213C280.151 283.238 280.096 283.275 280.05 283.321C280.004 283.367 279.968 283.422 279.943 283.482C279.918 283.543 279.905 283.607 279.905 283.672C279.905 283.685 279.906 283.697 279.907 283.709C280.353 288.781 278.986 293.848 276.048 298.006C275.878 298.248 275.792 298.539 275.801 298.835L276.33 315.203C276.342 315.568 276.495 315.914 276.757 316.169C277.018 316.424 277.368 316.568 277.733 316.571H288.668C289.037 316.568 289.391 316.421 289.653 316.161C289.915 315.901 290.066 315.548 290.073 315.179L290.276 299.287C290.282 298.704 290.111 298.133 289.784 297.65Z" fill="#FFC310"/>
<path opacity="0.2" d="M284.244 279.899C284.244 280.246 284.106 280.58 283.861 280.826C283.615 281.071 283.282 281.209 282.935 281.209C282.588 281.209 282.255 281.071 282.009 280.826C281.763 280.58 281.625 280.246 281.625 279.899" fill="black"/>
<path d="M287.654 300.803H278.423V306.963H287.654V300.803Z" fill="white"/>
<path d="M430.062 343.186H421.493C421.191 343.186 420.902 343.306 420.689 343.519C420.476 343.732 420.357 344.021 420.357 344.323V348.088C420.357 348.389 420.476 348.679 420.689 348.892C420.902 349.105 421.191 349.225 421.493 349.225H422.913V354.866H428.642V349.225H430.062C430.363 349.225 430.652 349.105 430.865 348.892C431.078 348.679 431.198 348.389 431.198 348.088V344.323C431.198 344.021 431.078 343.732 430.865 343.519C430.652 343.306 430.363 343.186 430.062 343.186Z" fill="#E6E6E6"/>
<path d="M438.645 377.64C433.397 369.954 430.714 360.803 430.98 351.497C430.985 351.282 430.916 351.072 430.783 350.903C430.651 350.734 430.465 350.616 430.255 350.568V348.942H421.205V350.546H421.08C420.958 350.546 420.838 350.57 420.725 350.617C420.613 350.664 420.51 350.733 420.424 350.819C420.338 350.905 420.27 351.008 420.223 351.121C420.177 351.234 420.153 351.354 420.153 351.477C420.153 351.499 420.154 351.522 420.156 351.544C420.869 361.492 418.461 370.413 412.933 378.308C412.615 378.761 412.452 379.306 412.47 379.86L413.459 410.499C413.483 411.182 413.77 411.83 414.259 412.307C414.749 412.784 415.403 413.054 416.087 413.059H436.556C437.247 413.053 437.909 412.778 438.4 412.291C438.891 411.805 439.173 411.145 439.185 410.454L439.566 380.706C439.578 379.614 439.256 378.545 438.645 377.64Z" fill="#FFC310"/>
<path opacity="0.2" d="M428.275 344.412C428.275 345.063 428.017 345.687 427.557 346.147C427.098 346.607 426.474 346.866 425.824 346.866C425.174 346.866 424.551 346.607 424.091 346.147C423.632 345.687 423.373 345.063 423.373 344.412" fill="black"/>
<path d="M435.404 387.818H417.587C417.323 387.818 417.062 387.875 416.823 387.985C416.583 388.095 416.37 388.256 416.199 388.457C416.027 388.657 415.9 388.892 415.828 389.146C415.755 389.4 415.739 389.666 415.779 389.927L418.471 407.445H433.932L437.202 389.986C437.252 389.722 437.242 389.45 437.175 389.189C437.107 388.929 436.984 388.687 436.812 388.48C436.64 388.273 436.425 388.106 436.182 387.992C435.938 387.877 435.673 387.818 435.404 387.818Z" fill="white"/>
<path d="M405.613 413.918H354.533C358.104 394.593 357.283 371.256 354.533 346.159H405.613C402.936 371.256 402.137 394.593 405.613 413.918Z" fill="#FFC310"/>
<path d="M380.381 390.511C387.179 390.511 392.689 384.995 392.689 378.191C392.689 371.387 387.179 365.871 380.381 365.871C373.583 365.871 368.073 371.387 368.073 378.191C368.073 384.995 373.583 390.511 380.381 390.511Z" fill="white"/>
<path d="M196.685 200.67L208.151 199.627L215.449 181.889L202.418 174.585L196.685 200.67Z" fill="#FFB8B8"/>
<path d="M301.921 249.366C302.303 248.415 302.453 247.386 302.359 246.365C302.265 245.343 301.93 244.359 301.381 243.493C300.833 242.627 300.086 241.904 299.204 241.383C298.321 240.862 297.328 240.559 296.305 240.498L278.501 239.435L275.879 248.16L294.208 253.199C295.739 253.62 297.372 253.462 298.795 252.755C300.217 252.048 301.33 250.842 301.921 249.366Z" fill="#FFB8B8"/>
<path d="M282.804 253.345L282.608 236.973L243.061 230.656L212.595 195.682C211.01 193.862 208.819 192.679 206.429 192.352C204.04 192.025 201.612 192.576 199.597 193.903C198.377 194.707 197.349 195.768 196.584 197.014C195.819 198.259 195.336 199.657 195.171 201.109C195.005 202.562 195.16 204.033 195.625 205.418C196.089 206.804 196.853 208.071 197.86 209.129L222.995 240.089L282.804 253.345Z" fill="#185A9D"/>
<path d="M187.824 437.529H198.248L224.105 320.515L250.892 356.663L266.529 434.92H276.432L274.347 350.924L239.425 261.189H205.024C195.623 278.219 188.249 295.773 196.685 313.883L187.824 437.529Z" fill="#2F2E41"/>
<path d="M260.138 444.636C260.023 445.005 259.988 445.395 260.035 445.779C260.082 446.163 260.21 446.532 260.41 446.863C260.611 447.193 260.88 447.477 261.199 447.696C261.518 447.914 261.879 448.062 262.26 448.13L287.769 452.661C288.777 452.845 289.817 452.654 290.695 452.124C291.572 451.594 292.224 450.76 292.53 449.781C292.827 448.846 292.786 447.836 292.413 446.928C292.04 446.02 291.359 445.273 290.49 444.817C284.881 441.935 280.054 437.734 276.422 432.575C273.619 435.188 270.485 434.943 267.158 433.017L263.628 433.458L260.138 444.636Z" fill="#2F2E41"/>
<path d="M182.997 444.636C182.882 445.005 182.846 445.395 182.893 445.779C182.94 446.163 183.068 446.532 183.269 446.863C183.469 447.193 183.738 447.477 184.057 447.696C184.376 447.914 184.738 448.062 185.118 448.13L210.627 452.661C211.635 452.845 212.676 452.654 213.553 452.124C214.43 451.594 215.083 450.76 215.389 449.781C215.686 448.846 215.644 447.836 215.271 446.928C214.898 446.02 214.217 445.273 213.349 444.817C207.74 441.935 202.913 437.734 199.281 432.575C196.477 435.188 193.344 434.943 190.016 433.017L186.487 433.458L182.997 444.636Z" fill="#2F2E41"/>
<path d="M215.709 188.41C223.77 188.41 230.304 181.87 230.304 173.802C230.304 165.734 223.77 159.194 215.709 159.194C207.649 159.194 201.115 165.734 201.115 173.802C201.115 181.87 207.649 188.41 215.709 188.41Z" fill="#FFB8B8"/>
<path d="M202.679 265.102L240.728 264.059L229.554 228.857C236.498 217.714 229.509 206.583 219.618 195.453L211.8 190.236L199.291 189.193C193.875 194.994 190.911 202.667 191.021 210.606C191.268 227.606 194.276 246.113 202.679 265.102Z" fill="#185A9D"/>
<path d="M290.099 288.797C290.824 288.072 291.366 287.185 291.681 286.209C291.996 285.234 292.075 284.197 291.911 283.184C291.747 282.172 291.345 281.213 290.739 280.387C290.132 279.561 289.338 278.891 288.421 278.432L272.47 270.444L266.631 277.434L281.502 289.283C282.744 290.273 284.307 290.771 285.893 290.681C287.479 290.592 288.976 289.921 290.099 288.797Z" fill="#FFB8B8"/>
<path d="M270.959 284.927L277.214 269.798L243.338 248.419L229.074 204.268C228.331 201.971 226.783 200.021 224.714 198.779C222.646 197.537 220.198 197.088 217.823 197.515C216.386 197.773 215.023 198.344 213.83 199.188C212.638 200.031 211.645 201.127 210.921 202.397C210.198 203.667 209.763 205.08 209.645 206.537C209.528 207.994 209.732 209.459 210.242 210.829L221.182 249.19L270.959 284.927Z" fill="#185A9D"/>
<path d="M191.733 168.063C191.733 173.747 195.421 182.55 200.073 186.323C203.202 188.862 207.339 188.755 208.933 185.28C210.569 181.715 216.209 173.335 226.134 168.063C239.365 161.036 221.442 149.014 208.933 150.847C199.534 152.224 191.733 158.555 191.733 168.063Z" fill="#2F2E41"/>
<path d="M200.594 160.238C206.351 160.238 211.018 155.566 211.018 149.803C211.018 144.041 206.351 139.369 200.594 139.369C194.836 139.369 190.169 144.041 190.169 149.803C190.169 155.566 194.836 160.238 200.594 160.238Z" fill="#2F2E41"/>
<path d="M212.582 146.151C212.581 143.521 211.587 140.988 209.798 139.06C208.01 137.132 205.56 135.952 202.939 135.756C203.198 135.737 203.457 135.717 203.721 135.717C206.486 135.717 209.137 136.816 211.092 138.773C213.047 140.73 214.146 143.384 214.146 146.151C214.146 148.919 213.047 151.573 211.092 153.529C209.137 155.486 206.486 156.586 203.721 156.586C203.457 156.586 203.198 156.565 202.939 156.546C205.56 156.35 208.01 155.17 209.798 153.243C211.587 151.315 212.581 148.782 212.582 146.151Z" fill="#2F2E41"/>
<path d="M215.97 179.019C217.265 179.019 218.316 177.618 218.316 175.889C218.316 174.16 217.265 172.759 215.97 172.759C214.675 172.759 213.625 174.16 213.625 175.889C213.625 177.618 214.675 179.019 215.97 179.019Z" fill="#FFB8B8"/>
<path d="M511.33 418.393H349.053L314.689 255.793H285.361V248.498H320.597L354.961 411.097H511.33V418.393Z" fill="#3F3D56"/>
<path d="M372.833 448.099C381.46 448.099 388.453 441.099 388.453 432.464C388.453 423.83 381.46 416.83 372.833 416.83C364.207 416.83 357.213 423.83 357.213 432.464C357.213 441.099 364.207 448.099 372.833 448.099Z" fill="#3F3D56"/>
<path d="M489.463 448.099C498.089 448.099 505.083 441.099 505.083 432.464C505.083 423.83 498.089 416.83 489.463 416.83C480.836 416.83 473.843 423.83 473.843 432.464C473.843 441.099 480.836 448.099 489.463 448.099Z" fill="#3F3D56"/>
<path d="M508.372 414.957H350.484L322.627 277.161H534.514C535.596 277.161 536.664 277.395 537.646 277.848C538.628 278.301 539.5 278.961 540.203 279.784C540.906 280.606 541.422 281.571 541.717 282.613C542.011 283.654 542.077 284.747 541.909 285.816L515.766 408.628C515.496 410.395 514.601 412.006 513.244 413.168C511.886 414.33 510.157 414.965 508.372 414.957ZM352.199 412.873H508.372C509.66 412.878 510.908 412.42 511.888 411.581C512.867 410.743 513.513 409.58 513.707 408.305L539.851 285.492C539.972 284.72 539.925 283.932 539.713 283.18C539.5 282.428 539.128 281.732 538.62 281.138C538.113 280.545 537.483 280.068 536.775 279.741C536.066 279.414 535.295 279.245 534.514 279.245H325.155L352.199 412.873Z" fill="#3F3D56"/>
<path d="M381.179 414.516L362.935 278.373L364.989 278.033L383.233 414.177L381.179 414.516Z" fill="#3F3D56"/>
<path d="M482.62 413.471L480.563 413.138L498.274 278.036L500.33 278.37L482.62 413.471Z" fill="#3F3D56"/>
<path d="M434.288 278.203H432.206V414.346H434.288V278.203Z" fill="#3F3D56"/>
<path d="M333.265 314.684L333.26 316.768L534.859 317.257L534.864 315.172L333.265 314.684Z" fill="#3F3D56"/>
<path d="M520.638 379.08L343.529 380.291L343.543 382.376L520.652 381.164L520.638 379.08Z" fill="#3F3D56"/>
<path d="M288.486 257.357C294.812 257.357 299.94 254.557 299.94 251.103C299.94 247.649 294.812 244.849 288.486 244.849C282.159 244.849 277.031 247.649 277.031 251.103C277.031 254.557 282.159 257.357 288.486 257.357Z" fill="#3F3D56"/>
</svg>
